<svg width="24" height="25" viewBox="0 0 24 25" fill="none" xmlns="http://www.w3.org/2000/svg">
<path fill-rule="evenodd" clip-rule="evenodd" d="M4.1182 11.7889H17.1865L12.1113 6.71375C12.0062 6.61031 11.9226 6.48708 11.8653 6.35117C11.808 6.21526 11.7782 6.06935 11.7776 5.92186C11.777 5.77438 11.8056 5.62823 11.8618 5.49186C11.918 5.35548 12.0006 5.23158 12.1048 5.12729C12.2091 5.023 12.333 4.94039 12.4694 4.88423C12.6058 4.82806 12.7519 4.79946 12.8994 4.80006C13.0469 4.80066 13.1928 4.83045 13.3287 4.88773C13.4646 4.945 13.5879 5.02861 13.6913 5.13375L20.6742 12.1167C20.677 12.1185 20.678 12.1223 20.6807 12.125C20.8339 12.2814 20.9378 12.4792 20.9795 12.6941C21.0212 12.9089 20.9989 13.1313 20.9154 13.3336C20.8595 13.4667 20.7804 13.5849 20.6807 13.6874L20.6742 13.6967L13.6913 20.6796C13.4725 20.8974 13.1867 21.0055 12.9018 21.0055C12.6809 21.0054 12.4649 20.9399 12.2812 20.8172C12.0975 20.6945 11.9543 20.5201 11.8697 20.316C11.7851 20.112 11.7629 19.8874 11.8059 19.6707C11.8489 19.454 11.9552 19.255 12.1113 19.0986L17.1856 14.0235H4.11727C3.82095 14.0235 3.53677 13.9058 3.32724 13.6962C3.11771 13.4867 3 13.2025 3 12.9062C3 12.6099 3.11771 12.3257 3.32724 12.1162C3.53677 11.9066 3.82095 11.7889 4.11727 11.7889" fill="#121314"/>
</svg>
